<svg width="16" height="16" viewBox="0 0 16 16" fill="none" xmlns="http://www.w3.org/2000/svg">
<g clip-path="url(#clip0_211_889)">
<path d="M6.04436 0.666656C5.65538 0.666656 5.28233 0.82118 5.00727 1.09623C4.73222 1.37129 4.5777 1.74434 4.5777 2.13332C4.5777 2.52231 4.73222 2.89536 5.00727 3.17041C5.28233 3.44547 5.65538 3.59999 6.04436 3.59999H7.51103V2.13332C7.51103 1.74434 7.35651 1.37129 7.08145 1.09623C6.8064 0.82118 6.43335 0.666656 6.04436 0.666656Z" fill="#36C5F0"/>
<path d="M6.04434 4.57767H2.13334C1.74435 4.57767 1.3713 4.73219 1.09625 5.00724C0.821195 5.2823 0.666672 5.65535 0.666672 6.04433C0.666672 6.43332 0.821195 6.80637 1.09625 7.08142C1.3713 7.35648 1.74435 7.511 2.13334 7.511H6.04467C6.43366 7.511 6.80671 7.35648 7.08176 7.08142C7.35682 6.80637 7.51134 6.43332 7.51134 6.04433C7.51134 5.65535 7.35682 5.2823 7.08176 5.00724C6.80671 4.73219 6.43366 4.57767 6.04467 4.57767" fill="#36C5F0"/>
<path d="M15.3333 6.04464C15.3333 5.65566 15.1788 5.2826 14.9037 5.00755C14.6287 4.7325 14.2556 4.57797 13.8667 4.57797C13.4777 4.57797 13.1046 4.7325 12.8296 5.00755C12.5545 5.2826 12.4 5.65566 12.4 6.04464V7.51131H13.8667C14.2556 7.51131 14.6287 7.35678 14.9037 7.08173C15.1788 6.80668 15.3333 6.43362 15.3333 6.04464Z" fill="#2EB67D"/>
<path d="M11.4223 6.04466V2.13332C11.4223 1.74434 11.2678 1.37129 10.9928 1.09623C10.7177 0.82118 10.3447 0.666656 9.95568 0.666656C9.5667 0.666656 9.19364 0.82118 8.91859 1.09623C8.64354 1.37129 8.48901 1.74434 8.48901 2.13332V6.04432C8.48901 6.43331 8.64354 6.80636 8.91859 7.08141C9.19364 7.35647 9.5667 7.51099 9.95568 7.51099C10.3447 7.51099 10.7177 7.35647 10.9928 7.08141C11.2678 6.80636 11.4223 6.43331 11.4223 6.04432" fill="#2EB67D"/>
<path d="M9.95533 15.3333C10.3443 15.3333 10.7174 15.1788 10.9924 14.9037C11.2675 14.6287 11.422 14.2556 11.422 13.8667C11.422 13.4777 11.2675 13.1046 10.9924 12.8296C10.7174 12.5545 10.3443 12.4 9.95533 12.4H8.48866V13.8667C8.48866 14.2556 8.64319 14.6287 8.91824 14.9037C9.19329 15.1788 9.56635 15.3333 9.95533 15.3333Z" fill="#ECB22E"/>
<path d="M9.95533 11.4223H13.8667C14.2556 11.4223 14.6287 11.2678 14.9038 10.9927C15.1788 10.7177 15.3333 10.3446 15.3333 9.95565C15.3333 9.56667 15.1788 9.19361 14.9038 8.91856C14.6287 8.64351 14.2556 8.48898 13.8667 8.48898H9.95533C9.56635 8.48898 9.19329 8.64351 8.91824 8.91856C8.64319 9.19361 8.48866 9.56667 8.48866 9.95565C8.48866 10.3446 8.64319 10.7177 8.91824 10.9927C9.19329 11.2678 9.56635 11.4223 9.95533 11.4223Z" fill="#ECB22E"/>
<path d="M0.666672 9.95531C0.666672 10.3443 0.821195 10.7174 1.09625 10.9924C1.3713 11.2675 1.74435 11.422 2.13334 11.422C2.52232 11.422 2.89538 11.2675 3.17043 10.9924C3.44548 10.7174 3.60001 10.3443 3.60001 9.95531V8.48865H2.13334C1.74435 8.48865 1.3713 8.64317 1.09625 8.91822C0.821195 9.19328 0.666672 9.56633 0.666672 9.95531Z" fill="#E01E5A"/>
<path d="M4.5777 9.95531V13.8666C4.5777 14.2556 4.73222 14.6287 5.00727 14.9037C5.28233 15.1788 5.65538 15.3333 6.04436 15.3333C6.43335 15.3333 6.8064 15.1788 7.08145 14.9037C7.35651 14.6287 7.51103 14.2556 7.51103 13.8666V9.95531C7.51103 9.56633 7.35651 9.19328 7.08145 8.91822C6.8064 8.64317 6.43335 8.48865 6.04436 8.48865C5.65538 8.48865 5.28233 8.64317 5.00727 8.91822C4.73222 9.19328 4.5777 9.56633 4.5777 9.95531Z" fill="#E01E5A"/>
</g>
<defs>
<clipPath id="clip0_211_889">
<rect width="16" height="16" fill="white"/>
</clipPath>
</defs>
</svg>
